<svg xmlns="http://www.w3.org/2000/svg" width="10" height="10" viewBox="0 0 10 10">
  <metadata><?xpacket begin="﻿" id="W5M0MpCehiHzreSzNTczkc9d"?>
<x:xmpmeta xmlns:x="adobe:ns:meta/" x:xmptk="Adobe XMP Core 5.6-c138 79.159824, 2016/09/14-01:09:01        ">
   <rdf:RDF xmlns:rdf="http://www.w3.org/1999/02/22-rdf-syntax-ns#">
      <rdf:Description rdf:about=""/>
   </rdf:RDF>
</x:xmpmeta>
                                                                                                    
                                                                                                    
                                                                                                    
                                                                                                    
                                                                                                    
                                                                                                    
                                                                                                    
                                                                                                    
                                                                                                    
                                                                                                    
                                                                                                    
                                                                                                    
                                                                                                    
                                                                                                    
                                                                                                    
                                                                                                    
                                                                                                    
                                                                                                    
                                                                                                    
                                                                                                    
                           
<?xpacket end="w"?></metadata>
<defs>
    <style>
      .cls-1 {
        fill: #d8354c;
        fill-rule: evenodd;
      }
    </style>
  </defs>
  <path class="cls-1" d="M1367,16.333A8.644,8.644,0,0,0,1370.67,20l1.22-1.222a0.437,0.437,0,0,1,.55-0.111,5.855,5.855,0,0,0,2,.333,0.525,0.525,0,0,1,.56.556v1.889a0.525,0.525,0,0,1-.56.556,9.434,9.434,0,0,1-9.44-9.445,0.525,0.525,0,0,1,.56-0.556h1.94a0.53,0.53,0,0,1,.56.556,6.35,6.35,0,0,0,.33,2,0.709,0.709,0,0,1-.11.556L1367,16.333h0Z" transform="translate(-1365 -12)"/>
</svg>
